# xmcd CD database file
# Copyright (C) 1997 Ti Kan
# 
# Track frame offsets:
#     182
#     19737
#     29295
#     44112
#     59240
#     84630
#     95417
#     113670
#     130500
#     141045
#     160857
#     176625
#     189142
#     207110
# 
# Disc length: 3109 seconds
# 
# Revision: 1
# Processed by: cddbd v1.4b41PL1 Copyright (c) Steve Scherf et al.
# Submitted via: DiscPlay 4.0.4
# 
DISCID=bb0c230e
DTITLE=Oliver Schroer - Jigzup
DYEAR=1900
DGENRE=
TTITLE0=Victory of Love
TTITLE1=Toby's Reel - The Job
TTITLE2=Laughing in her Sleep
TTITLE3=Horseshoes and Rainbows
TTITLE4=Far Away by the Sea - Lady Diane Laundy - Seanaghan Kennedy's
TTITLE5=Ansgar's Jig - Kari's Jig
TTITLE6=Blow November Wind - Sea of Change
TTITLE7=The Devil and the Little Faces
TTITLE8=The Hub of the Wheel
TTITLE9=Jump Up - Ghost Dance
TTITLE10=Roro
TTITLE11=December 16th - The Shooting Star
TTITLE12=If Geese Could Sing
TTITLE13=Bright Eyes
EXTD=
EXTT0=
EXTT1=
EXTT2=
EXTT3=
EXTT4=
EXTT5=
EXTT6=
EXTT7=
EXTT8=
EXTT9=
EXTT10=
EXTT11=
EXTT12=
EXTT13=
PLAYORDER=
